<svg width="139" height="139" viewBox="0 0 139 139" fill="none" xmlns="http://www.w3.org/2000/svg"><path d="M127.484.89c-3.742 0-7.04 1.813-9.14 4.57h-96.72c-2.1-2.757-5.398-4.57-9.14-4.57C6.143.89.984 6.017.984 12.317s5.159 11.425 11.5 11.425c3.742 0 7.04-1.812 9.14-4.57h4.163l-2.705 96.443c0 .918.555 1.75 1.408 2.107l44.601 20.992a2.336 2.336 0 0 0 1.785 0l45.503-19.183a2.284 2.284 0 0 0 1.408-2.106l-3.606-98.253h4.163c2.099 2.758 5.398 4.57 9.14 4.57 6.341 0 11.5-5.125 11.5-11.425 0-6.3-5.159-11.425-11.5-11.425zM116.217 14.6H23.752a11.349 11.349 0 0 0 0-4.57h92.465a11.326 11.326 0 0 0 0 4.57z" fill="#C7C7C7"/></svg>