<svg viewBox="0 0 275 52" fill="none" xmlns="http://www.w3.org/2000/svg"><path d="M9.027 17.333C7.815 8.334 14.813.33 23.892.33h226.91c9.345 0 16.416 8.454 14.764 17.652l-3.773 21A14.999 14.999 0 0 1 247.03 51.33H26.722a15 15 0 0 1-14.866-12.997l-2.83-21z" fill="#fff"/><path d="M66.22 28.559c.428.234.943.433 1.547.597a7.208 7.208 0 0 0 1.898.246c.72 0 1.228-.108 1.52-.325.294-.223.44-.568.44-1.037 0-.316-.073-.583-.22-.8-.146-.222-.395-.445-.747-.668-.345-.222-.887-.515-1.626-.879-.984-.486-1.784-1.054-2.4-1.705-.614-.65-.922-1.468-.922-2.452 0-.844.205-1.532.615-2.065.416-.54.973-.929 1.67-1.17.703-.245 1.497-.368 2.382-.368.762 0 1.453.082 2.074.246.627.164 1.087.34 1.38.527l-.457 2.171a5.974 5.974 0 0 0-1.31-.615c-.468-.159-1.004-.238-1.608-.238-.709 0-1.222.12-1.538.36-.31.235-.466.572-.466 1.011 0 .311.076.578.229.8.158.223.39.437.694.642.305.2.768.463 1.389.791.844.445 1.514.847 2.013 1.204.503.352.905.773 1.204 1.266.304.492.457 1.08.457 1.766 0 .785-.19 1.46-.572 2.022-.38.556-.92.981-1.617 1.274-.691.287-1.494.43-2.408.43a10.58 10.58 0 0 1-1.652-.131c-.551-.082-1.04-.185-1.468-.308-.422-.123-.72-.24-.897-.351l.396-2.241zm16.014-7.295c.75-.024 1.368.094 1.854.351.492.258.858.68 1.099 1.266.246.586.369 1.362.369 2.329v6.24h-2.742v-5.695c0-.54-.047-.964-.141-1.274-.088-.317-.234-.545-.44-.686-.199-.14-.477-.211-.835-.211-.298 0-.647.061-1.045.185a2.807 2.807 0 0 0-1.029.57v7.111h-2.742V16.843h2.742v3.85l-.15 1.775c.376-.31.848-.583 1.416-.818.574-.24 1.122-.369 1.644-.386zm5.598 5.08c0-1.073.211-1.986.633-2.742a4.153 4.153 0 0 1 1.758-1.723c.75-.393 1.611-.589 2.584-.589 1.107 0 2.018.234 2.733.703a3.983 3.983 0 0 1 1.556 1.872c.328.78.492 1.661.492 2.646 0 1.078-.21 1.998-.633 2.76a4.206 4.206 0 0 1-1.758 1.731c-.75.393-1.608.589-2.575.589-1.113 0-2.027-.235-2.742-.703a4.087 4.087 0 0 1-1.564-1.881c-.323-.791-.484-1.679-.484-2.663zm6.917.176c0-.938-.167-1.717-.5-2.338-.335-.627-.842-.94-1.521-.94-1.371 0-2.057 1.019-2.057 3.058 0 .615.07 1.178.21 1.687.147.504.373.909.678 1.213.31.305.697.457 1.16.457 1.353 0 2.03-1.046 2.03-3.137zm18.967-5.09l-3.129 10.16h-2.443l-1.6-5.334-.387-1.916-.395 1.916-1.573 5.335h-2.54l-3.06-10.16h2.743l1.248 4.842.457 2.426.501-2.417 1.45-4.851h2.558l1.45 4.842.457 2.409.448-2.382 1.161-4.87h2.654zm11.391-.193c.972 0 1.749.109 2.329.326a2.328 2.328 0 0 1 1.309 1.116c.287.527.431 1.268.431 2.223v6.689h-1.6c-.263 0-.463-.018-.597-.053a.507.507 0 0 1-.317-.246c-.076-.129-.114-.334-.114-.615v-.07a3.841 3.841 0 0 1-2.61.984c-.645 0-1.216-.138-1.714-.413a3.008 3.008 0 0 1-1.152-1.16 3.494 3.494 0 0 1-.404-1.688c0-.586.149-1.087.448-1.503.305-.416.739-.75 1.301-1.002.873-.386 2.212-.58 4.017-.58v-.633c0-.375-.05-.65-.15-.826-.093-.176-.278-.296-.553-.36-.27-.065-.698-.097-1.284-.097-.281 0-.709.073-1.283.22a8.353 8.353 0 0 0-1.476.492l-.607-1.758c.235-.14.574-.293 1.02-.457a10.37 10.37 0 0 1 1.467-.413 7.17 7.17 0 0 1 1.539-.176zm-.229 8.5c.293 0 .601-.06.923-.176.322-.123.533-.25.633-.378v-2.391c-.334 0-.712.038-1.134.114-.416.07-.727.153-.932.246-.263.1-.474.235-.633.405-.158.17-.237.422-.237.756 0 .468.126.823.378 1.063.258.24.592.36 1.002.36zm9.976-12.894V31.45h-2.743V16.843h2.743zm5.906 0V31.45h-2.742V16.843h2.742zm14.256 4.42c.381 0 .641.042.782.124v2.645a1.75 1.75 0 0 0-.466-.175c-.17-.047-.416-.07-.738-.07-.844 0-1.588.3-2.233.904v6.76h-2.742V21.43h2.435l.123 1.37c.146-.257.363-.503.65-.737.293-.235.63-.425 1.011-.572a3.19 3.19 0 0 1 1.178-.228zm10.96 3.956c0 .843-.033 1.47-.097 1.88h-5.924c.053.827.311 1.442.774 1.846.468.405 1.101.607 1.898.607.381 0 .841-.05 1.38-.15.545-.105.943-.228 1.195-.369l.448 1.556c-.345.281-.864.519-1.555.712a7.991 7.991 0 0 1-2.162.29c-1.008 0-1.866-.205-2.575-.615a3.917 3.917 0 0 1-1.609-1.776c-.363-.78-.545-1.71-.545-2.795 0-.984.191-1.863.571-2.636a4.3 4.3 0 0 1 1.662-1.82c.732-.44 1.602-.659 2.61-.659.727 0 1.383.132 1.969.396.586.263 1.054.688 1.406 1.274.357.586.542 1.339.554 2.259zm-2.549.36a6.15 6.15 0 0 0 .009-.387c0-.638-.12-1.122-.361-1.45-.24-.334-.63-.5-1.169-.5s-.969.178-1.292.535c-.316.352-.521.953-.615 1.802h3.428zm4.693 3.2c.112.087.32.196.624.325.305.123.656.231 1.055.325.404.094.803.14 1.195.14.545.006.944-.055 1.196-.184.252-.13.377-.346.377-.65 0-.282-.175-.537-.527-.765-.346-.229-.893-.466-1.643-.712-.891-.293-1.536-.692-1.934-1.195-.393-.504-.589-1.125-.589-1.864 0-.62.17-1.148.51-1.582.346-.44.823-.77 1.433-.993.609-.223 1.309-.334 2.1-.334.639 0 1.21.062 1.714.185s.873.252 1.107.386l-.298 2.11c-.2-.182-.522-.34-.967-.475a4.37 4.37 0 0 0-1.283-.202c-.598 0-1.032.064-1.301.193a.633.633 0 0 0-.396.616c0 .205.062.38.185.527.123.14.319.278.589.413.275.129.671.281 1.186.457.686.234 1.231.492 1.635.773.41.276.709.595.896.959.188.357.282.785.282 1.283 0 1.013-.349 1.78-1.046 2.302-.692.516-1.653.774-2.883.774-.463 0-.929-.038-1.397-.114a9.23 9.23 0 0 1-1.266-.29c-.369-.123-.648-.247-.835-.37l.281-2.039zm18.044-7.348v10.16h-1.81c-.235 0-.405-.035-.51-.106-.106-.064-.158-.199-.158-.404v-.457c-.381.27-.847.498-1.398.686-.545.187-1.055.28-1.529.28-.914 0-1.611-.172-2.092-.518-.48-.345-.803-.823-.967-1.432-.158-.61-.237-1.395-.237-2.356v-5.853h2.742v5.827c0 .627.053 1.101.158 1.424.112.316.273.53.484.641.217.112.515.167.896.167.293 0 .604-.061.932-.184.328-.123.577-.252.747-.387v-7.488h2.742zm5.854-4.588V31.45h-2.743V16.843h2.743zm3.436 6.486h-1.204v-1.485c.387-.111.665-.197.835-.255a1.7 1.7 0 0 0 .466-.255c.135-.111.24-.258.316-.44.123-.292.343-.875.659-1.748h1.67v2.285h2.716v1.898h-2.716v4.026c0 .668.036 1.154.106 1.459.07.304.181.5.334.588.152.082.387.123.703.123.246 0 .527-.04.844-.123.322-.088.559-.187.712-.299l.334 1.539c-.276.246-.689.466-1.24.659a5.241 5.241 0 0 1-1.766.29c-.674 0-1.213-.103-1.617-.308-.399-.21-.692-.542-.879-.993-.182-.457-.273-1.063-.273-1.82v-5.14zm7.471 5.45c.111.087.319.196.624.325.305.123.656.231 1.055.325.404.094.802.14 1.195.14.545.006.943-.055 1.195-.184.252-.13.378-.346.378-.65 0-.282-.176-.537-.527-.765-.346-.229-.894-.466-1.644-.712-.89-.293-1.535-.692-1.933-1.195-.393-.504-.589-1.125-.589-1.864 0-.62.17-1.148.51-1.582.345-.44.823-.77 1.432-.993.61-.223 1.31-.334 2.101-.334.638 0 1.21.062 1.714.185s.873.252 1.107.386l-.299 2.11c-.199-.182-.521-.34-.967-.475a4.364 4.364 0 0 0-1.283-.202c-.597 0-1.031.064-1.301.193a.633.633 0 0 0-.395.616c0 .205.061.38.185.527.123.14.319.278.588.413.276.129.671.281 1.187.457.685.234 1.23.492 1.635.773.41.276.709.595.896.959.188.357.281.785.281 1.283 0 1.013-.348 1.78-1.045 2.302-.692.516-1.653.774-2.883.774-.463 0-.929-.038-1.398-.114a9.214 9.214 0 0 1-1.265-.29c-.37-.123-.648-.247-.835-.37l.281-2.039z" fill="#05071A"/></svg>