<svg width="68" height="40" viewBox="0 0 68 40" fill="none" xmlns="http://www.w3.org/2000/svg"><path d="M57.693 17.775l2.464 5.15c.821 1.746.365 3.861-1.186 4.965l-7.12 5.7a3.906 3.906 0 0 1-2.099.92l.73-6.253 3.651-4.137-4.016-7.265-5.476 6.253 2.647 4.782-.73 6.252c-.639-.276-1.187-.736-1.643-1.38l-5.111-6.62c-1.095-1.47-1.187-3.402-.091-4.873l4.38-6.252L34.146.947l-10.04 14.069 4.382 6.252c1.004 1.471 1.004 3.494-.092 4.873l-5.11 6.62a5.987 5.987 0 0 1-1.644 1.38l-.638-6.16 2.646-4.782-5.476-6.252-4.016 7.264 3.651 4.137.73 6.253c-.73-.184-1.46-.46-2.099-.92l-7.119-5.7c-1.46-1.196-2.008-3.31-1.186-4.966l2.464-5.149-9.675-9.47 5.659 28.596v2.85H61.617v-2.85l5.659-28.597-9.583 9.379zm-23.548-5.333c1.187 0 2.1.92 2.1 2.115 0 1.195-.913 2.115-2.1 2.115-1.186 0-2.099-.92-2.099-2.115 0-1.196.913-2.115 2.1-2.115zm0 18.666c1.187 0 2.1.92 2.1 2.115 0 1.195-.913 2.114-2.1 2.114-1.186 0-2.099-.919-2.099-2.114-.091-1.104.913-2.115 2.1-2.115z" fill="#C7C7C7"/></svg>