<svg width="154" height="70" viewBox="0 0 154 70" fill="none" xmlns="http://www.w3.org/2000/svg"><path fill-rule="evenodd" clip-rule="evenodd" d="M27.085 12.814c-2.246-1.503-5.121-2.461-8.553-2.79l-4.882-.469c-2.789-.267-4.1-1.976-3.846-4.59.026-.496.067-.973.107-1.44.086-1.01.167-1.966.085-2.937-3.413 5.651-2.09 11.581 2.156 13.747 2.618 1.306 5.236 2.613 7.796 4.265 2.998 2.222 2.197 7.07-1.716 10.386-4.116 3.474-10.506 3.564-11.678-.065-1.228-3.283-1.702-6.846.988-11.335.381-.543.663-1.213 1.073-2.187l.285-.672C3.8 19.863-.767 28.218 1.544 34.594c1.551 4.545 4.986 7.336 10.247 8.72.539.178 1.086.339 1.629.498 2.503.738 4.918 1.449 6.022 3.578l.132.276c.5 1.043 1.074 2.241 1.184 3.543.032.882-.951 2.546-1.82 3.518-1.478 1.44-3.076 1.463-4.21.827-2.618-1.306-4.367-3.584-4.752-6.61.114-.693.026-1.23-.063-1.765-5.53 6.679-4.963 12.888 1.433 14.909 1.34.533 2.832.848 4.34 1.166 1.112.235 2.232.471 3.305.798 2.697.592 4.701 1.958 6.552 3.531l1.542-54.77zm100.36 56.279l-2.007-54.464c2.424-2.554 6.057-4.158 10.714-4.605l4.882-.469c2.789-.267 4.101-1.976 3.846-4.59a42.795 42.795 0 0 0-.107-1.44c-.086-1.01-.167-1.966-.085-2.937 3.413 5.651 2.09 11.581-2.156 13.747-2.618 1.306-5.236 2.613-7.796 4.265-2.998 2.222-2.197 7.07 1.716 10.386 4.116 3.474 10.506 3.564 11.678-.065 1.228-3.283 1.702-6.846-.988-11.335-.381-.543-.663-1.213-1.073-2.187-.088-.21-.182-.433-.285-.672 5.1 5.137 9.668 13.491 7.356 19.868-1.551 4.545-4.986 7.336-10.247 8.72-.539.178-1.086.339-1.629.498-2.503.738-4.918 1.449-6.021 3.578l-.133.276c-.5 1.043-1.074 2.241-1.184 3.543-.032.882.952 2.546 1.821 3.518 1.477 1.44 3.075 1.463 4.209.827 2.618-1.306 4.367-3.584 4.752-6.61-.114-.693-.025-1.23.063-1.765 5.531 6.679 4.963 12.888-1.433 14.909-1.339.533-2.832.848-4.341 1.166-1.111.235-2.231.471-3.303.798-3.535.776-5.88 2.881-8.249 5.04z" fill="#C7C7C7"/></svg>